<svg width="400" height="400" xmlns="http://www.w3.org/2000/svg">
  <defs>
    <filter color-interpolation-filters="sRGB" primitiveUnits="userSpaceOnUse" filterUnits="objectBoundingBox" height="400%" width="400%" y="-100%" x="-100%" id="b">
      <feGaussianBlur result="blur" in="SourceGraphic" height="100%" width="100%" y="0%" x="0%" stdDeviation="17 11"/>
    </filter>
    <filter color-interpolation-filters="sRGB" primitiveUnits="userSpaceOnUse" filterUnits="objectBoundingBox" height="400%" width="400%" y="-100%" x="-100%" id="c">
      <feGaussianBlur result="blur" in="SourceGraphic" height="100%" width="100%" y="0%" x="0%" stdDeviation="10 21"/>
    </filter>
    <linearGradient id="a" y2="100%" x2="50%" y1="0%" x1="50%">
      <stop offset="0%" stop-color="#605b94"/>
      <stop offset="100%" stop-color="#51c5eb"/>
    </linearGradient>
  </defs>
  <g fill="none" stroke="url(#a)" stroke-width="44">
    <path filter="url(#b)" d="M190.3 60.107a19.4 19.4 0 0 1 19.4.001l106.6 61.546a19.398 19.398 0 0 1 9.7 16.8v123.092a19.4 19.4 0 0 1-9.7 16.8l-106.6 61.547a19.4 19.4 0 0 1-19.4-.001L83.7 278.346a19.398 19.398 0 0 1-9.7-16.8V138.454a19.4 19.4 0 0 1 9.7-16.8l106.6-61.547z"/>
    <path opacity=".24" filter="url(#c)" d="M190.3 60.107a19.4 19.4 0 0 1 19.4.001l106.6 61.546a19.398 19.398 0 0 1 9.7 16.8v123.092a19.4 19.4 0 0 1-9.7 16.8l-106.6 61.547a19.4 19.4 0 0 1-19.4-.001L83.7 278.346a19.398 19.398 0 0 1-9.7-16.8V138.454a19.4 19.4 0 0 1 9.7-16.8l106.6-61.547z"/>
    <path opacity=".24" filter="url(#c)" d="M190.3 60.107a19.4 19.4 0 0 1 19.4.001l106.6 61.546a19.398 19.398 0 0 1 9.7 16.8v123.092a19.4 19.4 0 0 1-9.7 16.8l-106.6 61.547a19.4 19.4 0 0 1-19.4-.001L83.7 278.346a19.398 19.398 0 0 1-9.7-16.8V138.454a19.4 19.4 0 0 1 9.7-16.8l106.6-61.547z"/>
    <path d="M190.3 60.107a19.4 19.4 0 0 1 19.4.001l106.6 61.546a19.398 19.398 0 0 1 9.7 16.8v123.092a19.4 19.4 0 0 1-9.7 16.8l-106.6 61.547a19.4 19.4 0 0 1-19.4-.001L83.7 278.346a19.398 19.398 0 0 1-9.7-16.8V138.454a19.4 19.4 0 0 1 9.7-16.8l106.6-61.547z"/>
  </g>
</svg>
