<svg width="1024" height="1024" xmlns="http://www.w3.org/2000/svg" fill="none">
	<g>
		<path stroke="null" id="svg_1" fill="white" d="m530.86018,107.05245c-8.68789,-13.97392 -29.03244,-13.97392 -37.72033,0l-489.3834,787.11862c-9.19873,14.7957 1.43996,33.9372 18.86387,33.9372l247.52535,0c7.67733,0 14.81421,-3.96822 18.86387,-10.49062l221.11001,-355.93337c0.01481,-0.01851 0.04442,-0.01851 0.05923,0l0,0c0.01111,0.02221 0.04072,0.02221 0.05553,0l144.29601,-232.28175c4.46055,-7.1813 4.45685,-16.26898 -0.0037,-23.44657l-123.66643,-198.90351zm346.69022,557.61315c-4.05336,-6.5187 -11.18654,-10.48322 -18.86017,-10.48322l-251.1086,0c-17.4165,0 -28.05889,19.13409 -18.86757,33.92979l142.57472,229.50547c4.04966,6.5224 11.18654,10.49062 18.86387,10.49062l251.22705,0c17.42391,0 28.0626,-19.1415 18.86387,-33.9372l-142.69318,-229.50547z" clip-rule="evenodd" fill-rule="evenodd"/>
		<path stroke="null" id="svg_2" fill="white" d="m133.86013,127.89303l156.78185,319.31244c7.67733,15.63228 29.54328,16.7502 38.77162,1.98041l198.94423,-318.37591c9.22834,-14.76979 -1.36223,-33.93349 -18.77873,-33.98162l-355.72237,-0.93653c-16.46887,-0.04072 -27.25563,17.22031 -19.99659,32.00121z"/>
	</g>
</svg>
